/* XPM */
static char * bitcoin32_xpm[] = {
"32 32 169 2",
"  	c None",
". 	c #000000",
"+ 	c #030310",
"@ 	c #06061E",
"# 	c #06061F",
"$ 	c #040411",
"% 	c #010107",
"& 	c #121254",
"* 	c #202098",
"= 	c #2929C6",
"- 	c #2A2ACA",
"; 	c #2929C8",
"> 	c #2A2AC8",
", 	c #20209C",
"' 	c #121259",
") 	c #02020B",
"! 	c #010103",
"~ 	c #181873",
"{ 	c #2A2AC9",
"] 	c #2828C2",
"^ 	c #2828C1",
"/ 	c #19197B",
"( 	c #010108",
"_ 	c #0A0A30",
": 	c #2828BF",
"< 	c #2828C3",
"[ 	c #2727BD",
"} 	c #2929C3",
"| 	c #0C0C3A",
"1 	c #111152",
"2 	c #151565",
"3 	c #2121A0",
"4 	c #141460",
"5 	c #10104C",
"6 	c #2929C5",
"7 	c #0D0D3C",
"8 	c #2929C7",
"9 	c #13135C",
"0 	c #080825",
"a 	c #2525B2",
"b 	c #040415",
"c 	c #2121A1",
"d 	c #2626B5",
"e 	c #2929C4",
"f 	c #1E1E8F",
"g 	c #121257",
"h 	c #16166D",
"i 	c #2727BA",
"j 	c #2828C0",
"k 	c #0D0D40",
"l 	c #03030F",
"m 	c #09092C",
"n 	c #0A0A2F",
"o 	c #2424AC",
"p 	c #070723",
"q 	c #050519",
"r 	c #020208",
"s 	c #202097",
"t 	c #0C0C3D",
"u 	c #17176D",
"v 	c #1C1C89",
"w 	c #030314",
"x 	c #040418",
"y 	c #090929",
"z 	c #20209B",
"A 	c #13135D",
"B 	c #030312",
"C 	c #05051B",
"D 	c #040412",
"E 	c #2323A9",
"F 	c #2626B6",
"G 	c #2727BB",
"H 	c #0A0A36",
"I 	c #030316",
"J 	c #110E17",
"K 	c #0A0918",
"L 	c #100D17",
"M 	c #080718",
"N 	c #161216",
"O 	c #040317",
"P 	c #0C0A13",
"Q 	c #060612",
"R 	c #0D0C29",
"S 	c #101052",
"T 	c #191977",
"U 	c #20209D",
"V 	c #2929C2",
"W 	c #2222A3",
"X 	c #05051D",
"Y 	c #000019",
"Z 	c #7E630A",
"` 	c #654F0D",
" .	c #52410F",
"..	c #66500C",
"+.	c #231C15",
"@.	c #745B0B",
"#.	c #56430F",
"$.	c #664F0D",
"%.	c #3A2E12",
"&.	c #040417",
"*.	c #030313",
"=.	c #01010B",
"-.	c #1F1F96",
";.	c #2B2BCD",
">.	c #2727BC",
",.	c #0B0B38",
"'.	c #040416",
").	c #090810",
"!.	c #372B10",
"~.	c #362B12",
"{.	c #322813",
"].	c #241D14",
"^.	c #473810",
"/.	c #261E14",
"(.	c #2D2414",
"_.	c #2A2214",
":.	c #171316",
"<.	c #070724",
"[.	c #2424AE",
"}.	c #2A2ACB",
"|.	c #2323AB",
"1.	c #1B1B84",
"2.	c #12125D",
"3.	c #0A0A34",
"4.	c #030318",
"5.	c #030315",
"6.	c #0D0D42",
"7.	c #2626BA",
"8.	c #1C1C88",
"9.	c #050517",
"0.	c #030311",
"a.	c #16166C",
"b.	c #1F1F97",
"c.	c #111153",
"d.	c #121255",
"e.	c #141461",
"f.	c #05051A",
"g.	c #08082C",
"h.	c #06061C",
"i.	c #1E1E93",
"j.	c #020207",
"k.	c #10104F",
"l.	c #2121A2",
"m.	c #070722",
"n.	c #1A1A7A",
"o.	c #1A1A7C",
"p.	c #010105",
"q.	c #21219E",
"r.	c #1D1D8C",
"s.	c #2525B0",
"t.	c #070721",
"u.	c #2626B7",
"v.	c #02020C",
"w.	c #2626B8",
"x.	c #14145F",
"y.	c #10104B",
"z.	c #040413",
"A.	c #02020A",
"B.	c #2323AA",
"C.	c #1B1B82",
"D.	c #2525B1",
"E.	c #191976",
"F.	c #19197A",
"G.	c #1A1A80",
"H.	c #050518",
"I.	c #0B0B34",
"J.	c #1C1C86",
"K.	c #161667",
"L.	c #0C0C37",
"                                                                ",
"                        . . + @ # $ . .                         ",
"                    % & * = - ; ; - > , ' )                     ",
"                ! ~ { ] ^ ^ ^ ^ ^ ^ ^ ^ ] - / (                 ",
"              _ : ^ ^ ^ ^ ^ ^ ^ ^ ^ ^ ^ < [ ^ } | .             ",
"          . 1 { ^ ^ ^ ^ ^ ^ ^ ^ ^ ^ ^ > 2 3 ^ ^ { 4 .           ",
"          5 ; ^ ^ ^ ^ ^ ^ ^ ^ ^ ^ ^ 6 7 _ 8 ^ ^ ^ = 9 .         ",
"        0 { ^ ^ ^ ^ ^ ^ ^ ^ ^ ^ ^ a b . c ^ ^ ^ ^ ^ { _         ",
"      . d ^ ^ ^ ^ ^ ^ ^ ^ ^ ^ e f . . _ ; ^ ^ ^ ^ ^ ^ [ .       ",
"      g < ^ ^ ^ ^ ^ ^ ^ ^ ^ ; h . . . , ^ ^ ^ ^ ^ ^ ^ ] 2       ",
"    . i ^ ^ ^ ^ ^ ^ ^ ^ ^ j k l . . m > ^ ^ ^ ^ ^ ^ ^ ^ < .     ",
"    n = ^ ^ ^ ^ ^ ^ ^ ] o p q r . . s ^ ^ ^ ^ ^ ^ ^ ^ ^ 6 t     ",
"    u ^ ^ ^ ^ ^ ^ ^ = v w x x + . y ; ^ ^ ^ ^ ^ ^ ^ ^ ^ ^ /     ",
"  . z ^ ^ ^ ^ ^ ^ 8 A B x x x C D ~ [ { e ^ ^ ^ ^ ^ ^ ^ ^ E .   ",
"  . F ^ ^ ^ ^ ^ G H I J K L M N O P Q R S T U ] = ^ ^ ^ ^ e .   ",
"  . V ^ ^ ^ ] W X x Y Z `  ...+.@.#.$.%.x &.*.=.-.] ^ ^ ^ ;..   ",
"  . : ^ ^ ^ >.g ,.'.).!.~.{.].^./.(._.:.x x <.[.] ^ ^ ^ ^ }..   ",
"  . o ^ ^ ^ ^ < 8 > |.1.2.3.@ 4.x x x x 5.6.^ ^ ^ ^ ^ ^ ^ 7..   ",
"    8.^ ^ ^ ^ ^ ^ ^ ^ ^ < i ! 9.x x x 0.a.; ^ ^ ^ ^ ^ ^ ^ b..   ",
"    c.] ^ ^ ^ ^ ^ ^ ^ ^ e d.. . C x x b.e ^ ^ ^ ^ ^ ^ ^ ^ e.    ",
"    + }.^ ^ ^ ^ ^ ^ ^ ^ i . . . f.g.d ^ ^ ^ ^ ^ ^ ^ ^ ^ - h.    ",
"    . i.^ ^ ^ ^ ^ ^ ^ < 9 . . j.k.e ^ ^ ^ ^ ^ ^ ^ ^ ^ ^ l..     ",
"      m.- ^ ^ ^ ^ ^ ^ : . . . n.8 ^ ^ ^ ^ ^ ^ ^ ^ ^ ^ ; n       ",
"      . o.^ ^ ^ ^ ^ ] e.. p.q.< ^ ^ ^ ^ ^ ^ ^ ^ ^ ^ ^ r..       ",
"        . s.^ ^ ^ ^ < . t.i ^ ^ ^ ^ ^ ^ ^ ^ ^ ^ ^ ^ u.!         ",
"          v.w.^ ^ ] x.y.8 ^ ^ ^ ^ ^ ^ ^ ^ ^ ^ ^ ^ [ z.          ",
"            A.B.] ] C.8 ^ ^ ^ ^ ^ ^ ^ ^ ^ ^ ^ ] D.+             ",
"              . a.- ] ^ ^ ^ ^ ^ ^ ^ ^ ^ ^ ^ - E..               ",
"                  z.F.= = ^ ^ ^ ^ ^ ^ 6 ; G.H..                 ",
"                      . I.2 J.b.b.8.K.L..                       ",
"                              . .                               ",
"                                                                "};
