/* XPM */
static char * bitcoin16_xpm[] = {
"16 16 87 1",
" 	c None",
".	c #080823",
"+	c #19197A",
"@	c #2727BC",
"#	c #2A2ACB",
"$	c #2A2ACA",
"%	c #2727BD",
"&	c #19197C",
"*	c #080827",
"=	c #121256",
"-	c #2A2AC9",
";	c #2828C1",
">	c #2929C8",
",	c #21219E",
"'	c #13135C",
")	c #111153",
"!	c #2929C6",
"~	c #0C0C39",
"{	c #1F1F98",
"]	c #2929C7",
"^	c #131359",
"/	c #050517",
"(	c #2626B8",
"_	c #06061A",
":	c #09092A",
"<	c #06061E",
"[	c #16166D",
"}	c #2929C4",
"|	c #20209A",
"1	c #040414",
"2	c #000000",
"3	c #202099",
"4	c #181871",
"5	c #2222A4",
"6	c #161770",
"7	c #020212",
"8	c #030418",
"9	c #080828",
"0	c #2B2BCF",
"a	c #2828C2",
"b	c #2323AB",
"c	c #0E0E43",
"d	c #251E11",
"e	c #372C13",
"f	c #2D2313",
"g	c #3B2F10",
"h	c #2F2510",
"i	c #090A39",
"j	c #121258",
"k	c #2626BA",
"l	c #2929C9",
"m	c #2828BE",
"n	c #2222A6",
"o	c #191978",
"p	c #1E1B51",
"q	c #1E1929",
"r	c #1B1617",
"s	c #141116",
"t	c #110E17",
"u	c #040419",
"v	c #20209B",
"w	c #2828C3",
"x	c #2929C5",
"y	c #202098",
"z	c #2525B2",
"A	c #09092E",
"B	c #2626B7",
"C	c #2121A0",
"D	c #141460",
"E	c #0D0D42",
"F	c #111154",
"G	c #151565",
"H	c #2626B9",
"I	c #2525B1",
"J	c #0B0B32",
"K	c #10104E",
"L	c #2121A1",
"M	c #2A2AC8",
"N	c #0C0C37",
"O	c #0A0A31",
"P	c #2525B4",
"Q	c #0B0B35",
"R	c #1C1C87",
"S	c #2323A9",
"T	c #2323AA",
"U	c #1D1D89",
"V	c #13135B",
"                ",
"    .+@#$%&*    ",
"   =-;;;;>,#'   ",
"  )>;;;;!~{;]^  ",
" /];;;;(_:>;;-< ",
" [;;;}|123;;;;4 ",
" 5;;>67890]a;;b ",
" a;%cdefghijk;l ",
" m;nopqrstuvw;x ",
" y;;;}z2uAB;;;C ",
" Da;;xE2Fx;;;aG ",
"  H;;I2o];;;;%  ",
"  J]}KLw;;;;MN  ",
"   OPH;;;;wBQ   ",
"     ^RSTUV     ",
"                "};
