/* XPM */
static char * bitcoin64_xpm[] = {
"64 64 286 2",
"  	c None",
". 	c #000000",
"+ 	c #06061E",
"@ 	c #0B0B35",
"# 	c #0E0E46",
"$ 	c #10104E",
"% 	c #10104F",
"& 	c #0F0F47",
"* 	c #0C0C38",
"= 	c #070721",
"- 	c #010102",
"; 	c #010105",
"> 	c #0F0F46",
", 	c #1A1A7F",
"' 	c #2424AF",
") 	c #2A2ACC",
"! 	c #2A2AC8",
"~ 	c #2929C6",
"{ 	c #2929C4",
"] 	c #2828C3",
"^ 	c #2929C8",
"/ 	c #2626B5",
"( 	c #1C1C86",
"_ 	c #03030D",
": 	c #0E0E40",
"< 	c #1E1E94",
"[ 	c #2A2ACB",
"} 	c #2828C1",
"| 	c #21219E",
"1 	c #10104B",
"2 	c #111154",
"3 	c #2626B9",
"4 	c #2929C5",
"5 	c #2929C3",
"6 	c #141462",
"7 	c #2626B6",
"8 	c #2828C2",
"9 	c #2828BF",
"0 	c #10104A",
"a 	c #010103",
"b 	c #1D1D8B",
"c 	c #2929C7",
"d 	c #21219D",
"e 	c #070722",
"f 	c #2727BA",
"g 	c #2424AD",
"h 	c #0D0D40",
"i 	c #1E1E92",
"j 	c #2A2AC9",
"k 	c #13135A",
"l 	c #2929C9",
"m 	c #141461",
"n 	c #2525B1",
"o 	c #16166D",
"p 	c #0F0F49",
"q 	c #0A0A31",
"r 	c #0D0D42",
"s 	c #161668",
"t 	c #0A0A32",
"u 	c #2323AB",
"v 	c #03030E",
"w 	c #2323AC",
"x 	c #10104D",
"y 	c #030311",
"z 	c #1B1B84",
"A 	c #0C0C3C",
"B 	c #080825",
"C 	c #2323A9",
"D 	c #111151",
"E 	c #2222A6",
"F 	c #000001",
"G 	c #151562",
"H 	c #2727BC",
"I 	c #070724",
"J 	c #0B0B37",
"K 	c #1B1B80",
"L 	c #030310",
"M 	c #2222A3",
"N 	c #020207",
"O 	c #2121A0",
"P 	c #2A2ACA",
"Q 	c #080827",
"R 	c #1C1C88",
"S 	c #0B0B33",
"T 	c #2222A4",
"U 	c #050519",
"V 	c #040419",
"W 	c #20209A",
"X 	c #0B0B36",
"Y 	c #1A1A7E",
"Z 	c #2626B7",
"` 	c #09092E",
" .	c #05051B",
"..	c #0A0A30",
"+.	c #040418",
"@.	c #06061C",
"#.	c #1E1E95",
"$.	c #050517",
"%.	c #10104C",
"&.	c #171770",
"*.	c #040412",
"=.	c #0A0A2E",
"-.	c #2A2AC7",
";.	c #151567",
">.	c #1E1E91",
",.	c #0E0E45",
"'.	c #030315",
").	c #040411",
"!.	c #1E1E90",
"~.	c #2424AE",
"{.	c #2424B0",
"].	c #070726",
"^.	c #0A0A2D",
"/.	c #090929",
"(.	c #1D1D8F",
"_.	c #060620",
":.	c #020208",
"<.	c #121255",
"[.	c #141463",
"}.	c #030312",
"|.	c #0A0A2F",
"1.	c #181871",
"2.	c #191979",
"3.	c #2727BE",
"4.	c #0C0C3A",
"5.	c #040416",
"6.	c #040417",
"7.	c #070725",
"8.	c #0E0E42",
"9.	c #1A1A7A",
"0.	c #1F1F95",
"a.	c #1F1F94",
"b.	c #2323A7",
"c.	c #030316",
"d.	c #05051C",
"e.	c #0A0A33",
"f.	c #13135B",
"g.	c #1B1B82",
"h.	c #2525B0",
"i.	c #2323A8",
"j.	c #1B1B81",
"k.	c #030313",
"l.	c #030318",
"m.	c #1C1715",
"n.	c #261F14",
"o.	c #000118",
"p.	c #2B2214",
"q.	c #211B15",
"r.	c #1F1815",
"s.	c #020318",
"t.	c #0D0C17",
"u.	c #403311",
"v.	c #0A0917",
"w.	c #0F0D17",
"x.	c #070718",
"y.	c #201A15",
"z.	c #020218",
"A.	c #0A0A37",
"B.	c #13135D",
"C.	c #1A1A82",
"D.	c #2323A6",
"E.	c #2525B5",
"F.	c #111155",
"G.	c #000019",
"H.	c #7A5F0A",
"I.	c #59460E",
"J.	c #4F3D10",
"K.	c #6C550C",
"L.	c #221C14",
"M.	c #765D0B",
"N.	c #826609",
"O.	c #1B1616",
"P.	c #765C0B",
"Q.	c #2B2313",
"R.	c #846809",
"S.	c #52400F",
"T.	c #3E3111",
"U.	c #70570C",
"V.	c #947307",
"W.	c #282014",
"X.	c #765D0A",
"Y.	c #09092F",
"Z.	c #2727B9",
"`.	c #2626B8",
" +	c #9B7906",
".+	c #70590B",
"++	c #816509",
"@+	c #2B2213",
"#+	c #8B6D08",
"$+	c #604B0E",
"%+	c #070618",
"&+	c #745B0B",
"*+	c #6D550C",
"=+	c #6F570B",
"-+	c #654F0D",
";+	c #644E0D",
">+	c #70580C",
",+	c #010118",
"'+	c #080828",
")+	c #2525B2",
"!+	c #2B2BCE",
"~+	c #1B1615",
"{+	c #5B470E",
"]+	c #7A600A",
"^+	c #5F4A0D",
"/+	c #69520C",
"(+	c #2F2613",
"_+	c #896B08",
":+	c #775D0A",
"<+	c #2A2113",
"[+	c #7E630A",
"}+	c #72590B",
"|+	c #735A0B",
"1+	c #7C610A",
"2+	c #493910",
"3+	c #5D490E",
"4+	c #54420F",
"5+	c #030314",
"6+	c #2323AA",
"7+	c #2828BE",
"8+	c #181875",
"9+	c #101050",
"0+	c #08082B",
"a+	c #050416",
"b+	c #050518",
"c+	c #050418",
"d+	c #060618",
"e+	c #030418",
"f+	c #181874",
"g+	c #1F1F97",
"h+	c #191977",
"i+	c #080829",
"j+	c #04041A",
"k+	c #05051A",
"l+	c #20209E",
"m+	c #2525B3",
"n+	c #1A1A7C",
"o+	c #1F1F98",
"p+	c #0E0E47",
"q+	c #202098",
"r+	c #131359",
"s+	c #060619",
"t+	c #020209",
"u+	c #111156",
"v+	c #010106",
"w+	c #0F0F4A",
"x+	c #070720",
"y+	c #050516",
"z+	c #010104",
"A+	c #121254",
"B+	c #141464",
"C+	c #17176F",
"D+	c #000002",
"E+	c #06061D",
"F+	c #1E1E8F",
"G+	c #2222A5",
"H+	c #080823",
"I+	c #1C1C89",
"J+	c #0D0D41",
"K+	c #02020A",
"L+	c #181872",
"M+	c #06061A",
"N+	c #191976",
"O+	c #0B0B34",
"P+	c #0E0E44",
"Q+	c #20209D",
"R+	c #2121A2",
"S+	c #080824",
"T+	c #2222A2",
"U+	c #121253",
"V+	c #1B1B83",
"W+	c #121258",
"X+	c #0B0B31",
"Y+	c #1C1C85",
"Z+	c #181873",
"`+	c #2525B4",
" @	c #16166A",
".@	c #191978",
"+@	c #121257",
"@@	c #2424AC",
"#@	c #010108",
"$@	c #20209C",
"%@	c #151565",
"&@	c #040414",
"*@	c #13135C",
"=@	c #151564",
"                                                                                                                                ",
"                                                                                                                                ",
"                                                      . . . . . . . . . .                                                       ",
"                                              . . . . . + @ # $ % & * = - . . . .                                               ",
"                                        . . . ; > , ' ) ! ~ { ] ] { ~ ^ ) / ( $ _ . . .                                         ",
"                                    . . . : < [ { } } } } } } } } } } } } } } ] [ | 1 . . .                                     ",
"                                . . . 2 3 4 } } } } } } } } } } } } } } } } } } } } 5 } 6 . . .                                 ",
"                              . . * 7 ] } } } } } } } } } } } } } } } } } } } } } } } } 8 9 0 . .                               ",
"                            . a b c } } } } } } } } } } } } } } } } } } } } } } } } } } } } 4 d _ .                             ",
"                        . . e f } } } } } } } } } } } } } } } } } } } } } } } } } } g } } } } } ] @ . .                         ",
"                      . . h c } } } } } } } } } } } } } } } } } } } } } } } } } { i & { } } } } } j k . .                       ",
"                    . . % l } } } } } } } } } } } } } } } } } } } } } } } } } j m . n } } } } } } } ~ o . .                     ",
"                    . p j } } } } } } } } } } } } } } } } } } } } } } } } } } q . r 4 } } } } } } } } ~ s . .                   ",
"                  . t l } } } } } } } } } } } } } } } } } } } } } } } } 8 u v . . w } } } } } } } } } } ^ x .                   ",
"                . y ] } } } } } } } } } } } } } } } } } } } } } } } } ~ z . . . A ~ } } } } } } } } } } } l B .                 ",
"              . . C } } } } } } } } } } } } } } } } } } } } } } } } ^ D . . . . E } } } } } } } } } } } } } f F .               ",
"              . G ] } } } } } } } } } } } } } } } } } } } } } } } H I . . . . J c } } } } } } } } } } } } } } K .               ",
"            . L ^ } } } } } } } } } } } } } } } } } } } } } } 8 M N . . . . . O } } } } } } } } } } } } } } } P Q .             ",
"            . R } } } } } } } } } } } } } } } } } } } } } } c K N . . . . . S ^ } } } } } } } } } } } } } } } } T . .           ",
"          . U P } } } } } } } } } } } } } } } } } } } } } 4 D V . . . . . . W } } } } } } } } } } } } } } } } } c X .           ",
"          . Y } } } } } } } } } } } } } } } } } } } } } Z `  ._ . . . . . ..! } } } } } } } } } } } } } } } } } } W .           ",
"        . F ^ } } } } } } } } } } } } } } } } } } } { W V +.@.. . . . . . #.} } } } } } } } } } } } } } } } } } } [ $..         ",
"        . %.] } } } } } } } } } } } } } } } } } } ^ &.y +.+.*.. . . . . =.-.} } } } } } } } } } } } } } } } } } } } ;..         ",
"        . >.} } } } } } } } } } } } } } } } } } 8 ,.'.+.+.V ).. . . . a !.} } } } } } } } } } } } } } } } } } } } } ~..         ",
"      . . ^ } } } } } } } } } } } } } } } } } {.].+.+.+.+.V U . . . . ^.~ } } } } } } } } } } } } } } } } } } } } } [ L .       ",
"      . /.c } } } } } } } } } } } } } } } 4 (.'.+.+.+.+.+.+._.:.. . ; b } } } } } } } } } } } } } } } } } } } } } } { ,..       ",
"      . <.8 } } } } } } } } } } } } } } c [.}.+.+.+.+.+.+.+.+.I L . |.4 } } } } } } } } } } } } } } } } } } } } } } } 1..       ",
"      . 2.} } } } } } } } } } } } } } 3.4.5.+.+.+.+.+.+.+.+.+.6.+ 7.8.9.| H ^ { } } } } } } } } } } } } } } } } } } } 0..       ",
"      . a.} } } } } } } } } } } } 8 b._.+.+.+.+.+.+.+.+.+.+.+.+.+.+.6.c.5.d.e.f.g.C 8 c ] } } } } } } } } } } } } } } h..       ",
"      . i.} } } } } } } } } } } c j.k.+.+.l.m.n.o.p.q.m.r.s.t.u.v.w.p.x.y.z.m.z.'.}.V A.B.C.D.c ^ 8 } } } } } } } } } { . .     ",
"      . E.} } } } } } } } } } ~ F.k.+.+.+.G.H.I.J.K.L.M.N.O.P.Q.R.S.T.U.V.W.X.G.+.+.+.+.+.c.}.}.Y./ } } } } } } } } } [ . .     ",
"      . Z.} } } } } } } } } `...6.+.+.+.+.G. +.+u.++@+V.#+$+%+G.&+*+=+p.-+;+>+,++.+.+.+.+.+.+.'+)+} } } } } } } } } } !+. .     ",
"      . / } } } } } } } } O y k.6.+.+.+.+.~+{+]+^+/+(+_+:+<+[+}+p.|+1+W.2+3+4++.+.+.+.+.+.5+p 5 } } } } } } } } } } } ) . .     ",
"      . 6+} } } } } } } } 4 7+W 8+9+0+5+}.a++.b+b+b+c+b+G.l.d+z.e+b+l.x.+.l.+.+.+.+.+.+.y f+! } } } } } } } } } } } } ~ . .     ",
"      . g+} } } } } } } } } } } } { ! 3.| h+9+i+j+5+5.6.+.+.+.+.+.+.+.+.+.+.+.+.+.+.+.k+l+] } } } } } } } } } } } } } m+.       ",
"      . n+} } } } } } } } } } } } } } } } 8 { ^ / o+&.p+i+_.6.+.+.+.+.+.+.+.+.+.+.6.q 3 } } } } } } } } } } } } } } } q+.       ",
"      . r+8 } } } } } } } } } } } } } } } } } } } } 8 ] s+t+= + +.+.+.+.+.+.+.+.k.u+~ } } } } } } } } } } } } } } } } 8+.       ",
"      . =.c } } } } } } } } } } } } } } } } } } } } 8 &.v+. . U  .+.+.+.+.+.+.k.g.c } } } } } } } } } } } } } } } } 5 w+.       ",
"      . . P } } } } } } } } } } } } } } } } } } } } 8 k+. . . . x++.+.+.+.+._.b.8 } } } } } } } } } } } } } } } } } P y+.       ",
"        . q+} } } } } } } } } } } } } } } } } } } 8 2.z+. . . . b++.+.+.5.4.3.} } } } } } } } } } } } } } } } } } } / .         ",
"        . A+] } } } } } } } } } } } } } } } } } } 4 + . . . . . b++.+.y B+c } } } } } } } } } } } } } } } } } } } } C+.         ",
"        . N P } } } } } } } } } } } } } } } } } } j.D+. . . . F E++.c.F+4 } } } } } } } } } } } } } } } } } } } } j x+.         ",
"          . R } } } } } } } } } } } } } } } } } ~ = . . . . . L k+].{.} } } } } } } } } } } } } } } } } } } } } } G+.           ",
"          . H+P } } } } } } } } } } } } } } } } I+. . . . . .  .,.8 } } } } } } } } } } } } } } } } } } } } } } 4 J+.           ",
"            . a.} } } } } } } } } } } } } } } ^ 7.. . . . . K+L+^ } } } } } } } } } } } } } } } } } } } } } } } ~.. .           ",
"            . M+j } } } } } } } } } } } } } } >.. . . . . F d 5 } } } } } } } } } } } } } } } } } } } } } } } ^ @ .             ",
"              . L+8 } } } } } } } } } } } } ^ /.. . . . k+7 } } } } } } } } } } } } } } } } } } } } } } } } } F+. .             ",
"              . . m+} } } } } } } } } } } } g+. . . . 8.~ } } } } } } } } } } } } } } } } } } } } } } } } } } :..               ",
"                . E+c } } } } } } } } } } ! ^.. . . N+^ } } } } } } } } } } } } } } } } } } } } } } } } } j O+.                 ",
"                  . P+! } } } } } } } } } Q+. . N R+] } } } } } } } } } } } } } } } } } } } } } } } } } 4 6 .                   ",
"                  . . m ~ } } } } } } } c q . S+H } } } } } } } } } } } } } } } } } } } } } } } } } } { , . .                   ",
"                    . . ;.c } } } } } } T+. U+^ } } } } } } } } } } } } } } } } } } } } } } } } } } { V+. .                     ",
"                      . . W+j } } } } c X+Y+~ } } } } } } } } } } } } } } } } } } } } } } } } } } c Z+. .                       ",
"                        . . @ ] } } } `+M 8 } } } } } } } } } } } } } } } } } } } } } } } } } } ^ %.. .                         ",
"                            . v O { } 8 } } } } } } } } } } } } } } } } } } } } } } } } } } ] ' @.. .                           ",
"                              . . 9+8 8 } } } } } } } } } } } } } } } } } } } } } } } } } c G . .                               ",
"                                . . D+ @4 ] } } } } } } } } } } } } } } } } } } } } 8 j .@K+. .                                 ",
"                                    . . F +@@@P 8 } } } } } } } } } } } } } } } ^ / 6 #@. .                                     ",
"                                        . . .  .B.0.{ P ~ ] 8 } } 8 ] ~ j ^ $@%@S+. . .                                         ",
"                                              . . . . &@O+%.*@=@%@B.$ J b+. . . . .                                             ",
"                                                    . . . . . . . . . . . .                                                     ",
"                                                                                                                                ",
"                                                                                                                                ",
"                                                                                                                                "};
